<svg xmlns="http://www.w3.org/2000/svg" viewBox="0 0 210.57 50.4"><defs><style>.a{fill:none}.b{fill:#17234b}.c{fill:#8bc541}.d{fill:#3e7e9c}.e{fill:#dc107a}.f{fill:#6f3f8a}.g{fill:#104068;fill-rule:evenodd}</style></defs><path class="a" d="M25.48 38.62 24 42.88h2.98l-1.5-4.26zM42.07 40.43A1.64 1.64 0 0 0 42 39a1.32 1.32 0 0 0-.75-.5 2 2 0 0 0-.38-.06h-1.54v2.86h1.11a2.3 2.3 0 0 0 .78-.11 1.49 1.49 0 0 0 .54-.3 1.2 1.2 0 0 0 .31-.46z"/><path class="b" d="M12.75 37.6a.38.38 0 0 0-.15-.09.63.63 0 0 0-.19 0h-.74a.85.85 0 0 0-.29 0 .51.51 0 0 0-.23.12.6.6 0 0 0-.19.22 1.69 1.69 0 0 0-.17.33l-2.54 6.19-2.45-6.2a1.8 1.8 0 0 0-.14-.31.85.85 0 0 0-.2-.22 1.1 1.1 0 0 0-.29-.12 1.35 1.35 0 0 0-.37 0h-.7a.52.52 0 0 0-.33.12.48.48 0 0 0-.15.4v7.87a.16.16 0 0 0 0 .09.13.13 0 0 0 .08 0H4.61a.2.2 0 0 0 .09 0 .16.16 0 0 0 0-.09v-7.5l2.92 7.49a.18.18 0 0 0 0 .07l.1.06H8.57a.23.23 0 0 0 .1-.05.16.16 0 0 0 .06-.08l3-7.49v7.46a.16.16 0 0 0 0 .09.2.2 0 0 0 .09.06.6.6 0 0 0 .18 0h.54a.61.61 0 0 0 .17 0 .19.19 0 0 0 .1-.06.16.16 0 0 0 0-.09V38a.75.75 0 0 0 0-.24.46.46 0 0 0-.06-.16zM26.3 37.68l-.08-.12a.23.23 0 0 0-.13-.07h-.9a.87.87 0 0 0-.21 0 .23.23 0 0 0-.13.07.35.35 0 0 0-.07.12l-2.87 8a.8.8 0 0 0-.05.23.16.16 0 0 0 0 .14.3.3 0 0 0 .17.06h.62a.6.6 0 0 0 .18 0A.22.22 0 0 0 23 46a.33.33 0 0 0 .06-.1l.7-2.06h3.55l.69 2.03.06.1a.15.15 0 0 0 .09.06.6.6 0 0 0 .18 0h.66a.3.3 0 0 0 .17-.06.14.14 0 0 0 0-.13.93.93 0 0 0 0-.24zm-2.3 5.2 1.48-4.26L27 42.88zM43.74 45.38 43 43.5c-.09-.22-.18-.41-.27-.58a2.8 2.8 0 0 0-.28-.46 2.1 2.1 0 0 0-.32-.34 1.87 1.87 0 0 0-.38-.24 3 3 0 0 0 .68-.32 2.51 2.51 0 0 0 .52-.45 2 2 0 0 0 .33-.6 2.59 2.59 0 0 0 0-1.59 1.88 1.88 0 0 0-.39-.65 2.08 2.08 0 0 0-.64-.47 3.42 3.42 0 0 0-.87-.27h-.39a4.19 4.19 0 0 0-.54 0H38.6a.44.44 0 0 0-.28.1.43.43 0 0 0-.14.36v7.93a.16.16 0 0 0 0 .09.13.13 0 0 0 .09.06.61.61 0 0 0 .17 0h.73a.2.2 0 0 0 .09-.06.16.16 0 0 0 0-.09v-3.7h.76a1.71 1.71 0 0 1 .67.12 1.39 1.39 0 0 1 .48.32 2 2 0 0 1 .35.5 6.21 6.21 0 0 1 .29.63l.79 2 .06.13a.39.39 0 0 0 .1.08h.78a.6.6 0 0 0 .18 0 .13.13 0 0 0 .09-.06.29.29 0 0 0 0-.09.49.49 0 0 0 0-.15c.03-.05-.01-.16-.07-.32zm-2.53-4.19a2.3 2.3 0 0 1-.78.11h-1.11v-2.88h1.54a2 2 0 0 1 .38.06A1.32 1.32 0 0 1 42 39a1.64 1.64 0 0 1 .12 1.43 1.2 1.2 0 0 1-.32.46 1.49 1.49 0 0 1-.59.3zM58.54 45.51l-3-4.06 2.83-3.39a1.59 1.59 0 0 0 .17-.24.33.33 0 0 0 0-.17.19.19 0 0 0 0-.08.22.22 0 0 0-.09-.07.61.61 0 0 0-.17 0 1.1 1.1 0 0 0-.28 0h-.46a.39.39 0 0 0-.13.06.28.28 0 0 0-.09.1l-3 3.8v-3.8a.16.16 0 0 0 0-.09.15.15 0 0 0-.09-.06h-.18a1.83 1.83 0 0 0-.54 0 .6.6 0 0 0-.18 0q-.08 0-.09.06a.16.16 0 0 0 0 .09v8.22a.16.16 0 0 0 0 .09.13.13 0 0 0 .09.06.6.6 0 0 0 .18 0h.72a.2.2 0 0 0 .09-.06.16.16 0 0 0 0-.09v-4.29l3.15 4.28a.57.57 0 0 0 .11.11.51.51 0 0 0 .22.08H58.65a.22.22 0 0 0 .09-.07.3.3 0 0 0 0-.1.58.58 0 0 0 0-.1 2.08 2.08 0 0 0-.2-.28zM72.44 45.2a.19.19 0 0 0-.07-.08.17.17 0 0 0-.1 0h-3.39V42h2.97a.29.29 0 0 0 .07-.08.47.47 0 0 0 0-.14 1.21 1.21 0 0 0 0-.2 1.41 1.41 0 0 0 0-.22.54.54 0 0 0 0-.15l-.07-.08a.19.19 0 0 0-.1 0h-2.87v-2.7h3.35a.16.16 0 0 0 .09 0 .27.27 0 0 0 .07-.08.54.54 0 0 0 0-.15 1.25 1.25 0 0 0 0-.21 1.27 1.27 0 0 0 0-.22.54.54 0 0 0 0-.15s0-.07-.07-.08a.16.16 0 0 0-.09 0h-4.07a.44.44 0 0 0-.28.1.43.43 0 0 0-.14.36v7.63a.41.41 0 0 0 .14.36.45.45 0 0 0 .28.11h4.11a.17.17 0 0 0 .1 0 .27.27 0 0 0 .07-.08.33.33 0 0 0 0-.15 1.34 1.34 0 0 0 0-.21 1.41 1.41 0 0 0 0-.22.33.33 0 0 0 0-.24zM87.25 37.59a.15.15 0 0 0-.08-.08.14.14 0 0 0-.09 0h-6a.17.17 0 0 0-.1 0l-.07.08a.53.53 0 0 0 0 .16 1.38 1.38 0 0 0 0 .22 1.5 1.5 0 0 0 0 .22.54.54 0 0 0 0 .15.27.27 0 0 0 .07.08.16.16 0 0 0 .1 0h2.4v7.43a.16.16 0 0 0 0 .09.2.2 0 0 0 .09.06h.73a.61.61 0 0 0 .17 0 .19.19 0 0 0 .1-.06.29.29 0 0 0 0-.09v-7.41h2.41a.13.13 0 0 0 .09 0l.08-.08a.54.54 0 0 0 0-.15 1.55 1.55 0 0 0 0-.22 1.48 1.48 0 0 0 0-.22.53.53 0 0 0 .1-.18zM105.87 37.5a.61.61 0 0 0-.17 0 1.19 1.19 0 0 0-.28 0 1.06 1.06 0 0 0-.26 0h-.18a.17.17 0 0 0-.1.06.32.32 0 0 0 0 .09v8.22a.16.16 0 0 0 0 .09.2.2 0 0 0 .12.04h.73a.61.61 0 0 0 .17 0 .19.19 0 0 0 .1 0 .29.29 0 0 0 0-.09v-8.26a.29.29 0 0 0 0-.09.14.14 0 0 0-.13-.06zM122.2 37.52a.58.58 0 0 0-.17-.05h-.55l-.18.05a.16.16 0 0 0-.09.07.11.11 0 0 0 0 .08v6.82c-.11-.21-.21-.41-.31-.62s-.21-.41-.32-.62l-.33-.65-.36-.67-2-3.76a2.53 2.53 0 0 0-.21-.34.81.81 0 0 0-.2-.21.66.66 0 0 0-.24-.11 1.55 1.55 0 0 0-.33 0h-.56a.57.57 0 0 0-.33.11.45.45 0 0 0-.15.38v7.9a.16.16 0 0 0 0 .09.2.2 0 0 0 .13.01.61.61 0 0 0 .17 0h.73a.2.2 0 0 0 .1 0 .16.16 0 0 0 0-.09V38.7c.12.26.24.53.38.81s.28.54.42.79l2.61 4.86a3.08 3.08 0 0 0 .25.43 1.54 1.54 0 0 0 .24.26.67.67 0 0 0 .25.13 1 1 0 0 0 .31 0h.56a.51.51 0 0 0 .16-.09.28.28 0 0 0 .11-.15.38.38 0 0 0 0-.22v-7.9a.11.11 0 0 0 0-.08.16.16 0 0 0-.09-.02zM136.16 42.11a2.64 2.64 0 0 0-.62-.48c-.23-.13-.47-.26-.71-.37l-.72-.33a4.06 4.06 0 0 1-.62-.37 1.48 1.48 0 0 1-.44-.46 1.09 1.09 0 0 1-.17-.61A1.18 1.18 0 0 1 133 39a.89.89 0 0 1 .26-.38 1.3 1.3 0 0 1 .43-.26 2 2 0 0 1 .62-.09 2.4 2.4 0 0 1 .69.09 3.54 3.54 0 0 1 .54.22 3.24 3.24 0 0 1 .38.21.52.52 0 0 0 .23.09.13.13 0 0 0 .08 0 .19.19 0 0 0 .05-.09.41.41 0 0 0 0-.16 1.34 1.34 0 0 0 0-.21V38.08a.3.3 0 0 0 0-.1l-.08-.09a1 1 0 0 0-.26-.17 3.21 3.21 0 0 0-.45-.19l-.54-.13a3.9 3.9 0 0 0-.58 0 3.42 3.42 0 0 0-1 .15 2.44 2.44 0 0 0-.83.44 1.88 1.88 0 0 0-.54.7 2.26 2.26 0 0 0-.2 1 2.21 2.21 0 0 0 .17.89 2.32 2.32 0 0 0 .44.65 3 3 0 0 0 .62.49 7.92 7.92 0 0 0 .71.37l.71.33a4.59 4.59 0 0 1 .62.36 1.66 1.66 0 0 1 .43.45 1.13 1.13 0 0 1 .17.62 1.4 1.4 0 0 1-.12.6 1.28 1.28 0 0 1-.34.45 1.58 1.58 0 0 1-.53.28 2.11 2.11 0 0 1-.68.1 2.79 2.79 0 0 1-.86-.12 3.32 3.32 0 0 1-.64-.24 3.08 3.08 0 0 1-.43-.25.6.6 0 0 0-.27-.11h-.09a.2.2 0 0 0-.06.09.54.54 0 0 0 0 .15 1.66 1.66 0 0 0 0 .24 1 1 0 0 0 0 .33.43.43 0 0 0 .11.2 1.19 1.19 0 0 0 .27.19 2.53 2.53 0 0 0 .49.22 4.64 4.64 0 0 0 .65.18 4 4 0 0 0 .8.07A3.79 3.79 0 0 0 135 46a2.75 2.75 0 0 0 .93-.49 2.43 2.43 0 0 0 .62-.8 2.62 2.62 0 0 0 .22-1.07 2.21 2.21 0 0 0-.17-.89 2 2 0 0 0-.44-.64zM147 37.5h-.18a1.06 1.06 0 0 0-.27 0 1 1 0 0 0-.26 0 .6.6 0 0 0-.18 0 .14.14 0 0 0-.1.06.16.16 0 0 0 0 .09v8.22a.16.16 0 0 0 0 .09.13.13 0 0 0 .09.06.6.6 0 0 0 .18 0h.72a.2.2 0 0 0 .09-.06.16.16 0 0 0 0-.09v-8.22a.16.16 0 0 0 0-.09.15.15 0 0 0-.09-.06zM163.26 38.12a1.39 1.39 0 0 0-.31-.22 3.32 3.32 0 0 0-.56-.25 4.78 4.78 0 0 0-.77-.2 4.42 4.42 0 0 0-.92-.09 4.59 4.59 0 0 0-1.73.32 3.79 3.79 0 0 0-2.21 2.32 5.61 5.61 0 0 0 0 3.62 3.81 3.81 0 0 0 .82 1.36 3.69 3.69 0 0 0 1.32.88 4.9 4.9 0 0 0 1.77.31h.66c.22 0 .44-.07.65-.12l.63-.19.5-.21a.62.62 0 0 0 .25-.22.73.73 0 0 0 .06-.3v-3.31a.46.46 0 0 0 0-.21.32.32 0 0 0-.09-.15.57.57 0 0 0-.13-.08.4.4 0 0 0-.15 0h-2.72a.12.12 0 0 0-.09 0 .18.18 0 0 0-.07.08.53.53 0 0 0-.05.15 1.34 1.34 0 0 0 0 .21.84.84 0 0 0 .06.36.17.17 0 0 0 .16.11h2v2.49a3.32 3.32 0 0 1-.76.29 3.7 3.7 0 0 1-.8.09 3.24 3.24 0 0 1-1.23-.22 2.66 2.66 0 0 1-1-.66 3.06 3.06 0 0 1-.63-1.07 4.39 4.39 0 0 1-.23-1.46 4.26 4.26 0 0 1 .21-1.36 3.29 3.29 0 0 1 .6-1.09 2.7 2.7 0 0 1 .95-.71 3 3 0 0 1 1.27-.26 3.53 3.53 0 0 1 1 .13 3.7 3.7 0 0 1 .74.28 5.22 5.22 0 0 1 .5.27.54.54 0 0 0 .26.13.16.16 0 0 0 .09 0 .13.13 0 0 0 .06-.09.54.54 0 0 0 0-.15 1.52 1.52 0 0 0 0-.23.89.89 0 0 0 0-.32.41.41 0 0 0-.11-.23zM179.16 37.5a.61.61 0 0 0-.17 0 1.14 1.14 0 0 0-.27 0 1.1 1.1 0 0 0-.28 0 .61.61 0 0 0-.17 0s-.08 0-.09.06a.16.16 0 0 0 0 .09v3.43h-3.9v-3.43a.15.15 0 0 0 0-.09.15.15 0 0 0-.09-.06h-.18a1.06 1.06 0 0 0-.27 0 1.19 1.19 0 0 0-.28 0 .61.61 0 0 0-.17 0 .14.14 0 0 0-.1.06.29.29 0 0 0 0 .09v8.22a.29.29 0 0 0 0 .09.19.19 0 0 0 .1.06.61.61 0 0 0 .17 0h.73a.2.2 0 0 0 .09-.06.15.15 0 0 0 0-.09v-3.8h3.9v3.8a.16.16 0 0 0 0 .09.16.16 0 0 0 .09.06.61.61 0 0 0 .17 0h.55a.61.61 0 0 0 .17 0 .13.13 0 0 0 .09-.06.16.16 0 0 0 0-.09v-8.22a.16.16 0 0 0 0-.09s-.04-.05-.09-.06zM194.45 37.59a.19.19 0 0 0-.07-.08.19.19 0 0 0-.1 0h-5.95a.17.17 0 0 0-.1 0l-.07.08a.53.53 0 0 0 0 .16 1.38 1.38 0 0 0 0 .22 1.5 1.5 0 0 0 0 .22.54.54 0 0 0 0 .15.27.27 0 0 0 .07.08.16.16 0 0 0 .1 0h2.4v7.43a.16.16 0 0 0 0 .09.2.2 0 0 0 .09.06h.73a.61.61 0 0 0 .17 0 .19.19 0 0 0 .1-.06.29.29 0 0 0 0-.09v-7.41h2.41a.18.18 0 0 0 .1 0l.07-.08a.54.54 0 0 0 0-.15 1.55 1.55 0 0 0 0-.22 1.48 1.48 0 0 0 0-.22.53.53 0 0 0 .05-.18zM207.69 42.75a2 2 0 0 0-.45-.64 2.64 2.64 0 0 0-.62-.48c-.23-.13-.47-.26-.71-.37s-.48-.23-.72-.33a4.06 4.06 0 0 1-.62-.37 1.48 1.48 0 0 1-.44-.46 1.09 1.09 0 0 1-.17-.61 1.18 1.18 0 0 1 .09-.46.89.89 0 0 1 .26-.38 1.3 1.3 0 0 1 .43-.26 2 2 0 0 1 .62-.09 2.4 2.4 0 0 1 .69.09 3.54 3.54 0 0 1 .54.22 3.24 3.24 0 0 1 .38.21.52.52 0 0 0 .23.09.13.13 0 0 0 .08 0 .19.19 0 0 0 .05-.09.41.41 0 0 0 0-.16 1.34 1.34 0 0 0 0-.21V38.11a.3.3 0 0 0 0-.1l-.08-.09a1 1 0 0 0-.26-.17 3.21 3.21 0 0 0-.45-.19l-.54-.16a3.66 3.66 0 0 0-.57 0 3.42 3.42 0 0 0-1 .15 2.44 2.44 0 0 0-.83.44 1.88 1.88 0 0 0-.54.7 2.26 2.26 0 0 0-.2 1 2.21 2.21 0 0 0 .17.89 2.32 2.32 0 0 0 .44.65 3 3 0 0 0 .62.49 7.92 7.92 0 0 0 .71.37l.71.33a3.93 3.93 0 0 1 .61.36 1.56 1.56 0 0 1 .44.45 1.13 1.13 0 0 1 .17.62 1.4 1.4 0 0 1-.12.6 1.28 1.28 0 0 1-.34.45 1.58 1.58 0 0 1-.53.28 2.11 2.11 0 0 1-.68.1 2.79 2.79 0 0 1-.86-.12 3.32 3.32 0 0 1-.64-.24 4.05 4.05 0 0 1-.44-.25.54.54 0 0 0-.26-.11h-.09a.2.2 0 0 0-.06.09.54.54 0 0 0 0 .15 1.66 1.66 0 0 0 0 .24 1 1 0 0 0 0 .33.43.43 0 0 0 .11.2 1.19 1.19 0 0 0 .27.19 2.53 2.53 0 0 0 .49.22 4.64 4.64 0 0 0 .65.18 4 4 0 0 0 .8.07 3.79 3.79 0 0 0 1.14-.16 2.75 2.75 0 0 0 .93-.49 2.43 2.43 0 0 0 .62-.8 2.62 2.62 0 0 0 .22-1.07 2.21 2.21 0 0 0-.25-.96z"/><path class="c" d="M41.82 24.36c.57-.52 1.13-1.05 1.68-1.58a.74.74 0 0 0 0-1.18l-1.75-1.72a1 1 0 0 0-.64-.29.85.85 0 0 0-.56.27c-.55.55-1.1 1.1-1.64 1.67a.69.69 0 0 0 0 1c.61.63 1.23 1.24 1.87 1.83a.75.75 0 0 0 1.04 0zM48 13.66a.73.73 0 0 0-1 0c-.59.53-1.17 1.07-1.73 1.62a.72.72 0 0 0 0 1.12c.6.6 1.21 1.18 1.81 1.77a.86.86 0 0 0 .6.27.84.84 0 0 0 .62-.3c.53-.54 1.06-1.07 1.58-1.61a.7.7 0 0 0 0-1.06c-.64-.6-1.26-1.22-1.88-1.81zM40.53 18.19a.77.77 0 0 0 1.16 0l1.84-1.8a.77.77 0 0 0 .25-.56.78.78 0 0 0-.26-.56c-.57-.53-1.13-1.07-1.71-1.59a.75.75 0 0 0-1.13 0c-.6.56-1.19 1.13-1.76 1.71a.73.73 0 0 0 0 1.13c.53.59 1.08 1.13 1.61 1.67zM48.2 19.87a.75.75 0 0 0-1.16 0c-.61.58-1.22 1.17-1.82 1.77a.74.74 0 0 0 0 1.15c.55.54 1.11 1.06 1.68 1.57a.75.75 0 0 0 1.13 0c.6-.57 1.18-1.14 1.77-1.72a.91.91 0 0 0 .26-.68.76.76 0 0 0-.25-.45z"/><path class="d" d="M48 25.78a.8.8 0 0 0-1 0c-.64.53-1.26 1.08-1.89 1.62-.17.15-.29.4-.14.57a6.07 6.07 0 0 0 2 1.42.21.21 0 0 0 .08 0 .68.68 0 0 0 .42-.1 13 13 0 0 0 2-1.6.43.43 0 0 0 0-.69zM35 18.32c.24.29.54.28.82 0 .54-.58 1.07-1.16 1.58-1.76a.73.73 0 0 0 0-1.1l-1.07-1.17c-.36-.41-.6-.42-1 0s-.88 1-1.32 1.53a.89.89 0 0 0-.26.6.62.62 0 0 0 .09.38c.41.49.78 1.02 1.16 1.52zM36.25 23.89q.59-.62 1.14-1.26a.74.74 0 0 0 0-1.12c-.5-.58-1-1.14-1.53-1.71a.57.57 0 0 0-.49-.23.46.46 0 0 0-.39.21c-.37.48-.74 1-1.09 1.46a.71.71 0 0 0 0 .88 16.64 16.64 0 0 0 1.55 1.81.47.47 0 0 0 .81-.04zM53.76 19.81a.52.52 0 0 0-.9 0c-.52.56-1 1.13-1.54 1.7a.77.77 0 0 0 0 1.14l1.09 1.2c.33.36.59.37.92 0 .48-.53.93-1.08 1.39-1.62a1.05 1.05 0 0 0 .23-.59.76.76 0 0 0-.16-.43c-.33-.47-.67-.94-1.03-1.4zM40.6 12.17a.84.84 0 0 0 1.29 0l1.69-1.44a.65.65 0 0 0 .24-.44.55.55 0 0 0-.27-.46c-.46-.33-.93-.65-1.38-1a.81.81 0 0 0-1 0 17.17 17.17 0 0 0-1.81 1.48.48.48 0 0 0 0 .81zM41.64 29.36a.73.73 0 0 0 .45-.1c.49-.36 1-.7 1.48-1.06s.36-.58 0-.89c-.58-.5-1.16-1-1.75-1.49a.81.81 0 0 0-1.17 0l-1.17 1c-.41.36-.43.62 0 1s1.08.88 1.62 1.32a.81.81 0 0 0 .54.22zM46.55 8.86c-.45.33-.91.64-1.35 1s-.41.6 0 .94l1.71 1.47a1 1 0 0 0 .6.24.85.85 0 0 0 .51-.21l1.29-1.12c.35-.3.38-.56 0-.86-.57-.49-1.16-1-1.75-1.42a.81.81 0 0 0-1.01-.04zM52.45 14.19l-1.12 1.24a.77.77 0 0 0 0 1.13c.5.57 1 1.13 1.52 1.68a.54.54 0 0 0 .93 0c.35-.44.69-.9 1-1.35a.88.88 0 0 0 .17-.44.92.92 0 0 0-.16-.49 16.54 16.54 0 0 0-1.55-1.8c-.24-.31-.5-.28-.79.03z"/><path class="e" d="M52.84 25a.74.74 0 0 0-.45.22c-.57.55-1.14 1.1-1.7 1.66-.33.33-.3.56.06.85a3.15 3.15 0 0 1 .41.31.56.56 0 0 0 .89-.05c.37-.35.75-.7 1.11-1.07.91-.92.79-.75 0-1.79a.31.31 0 0 0-.32-.13zM36.39 12.82c.54-.52 1.08-1 1.61-1.57a.68.68 0 0 0 .25-.44.36.36 0 0 0-.17-.37c-.19-.14-.39-.27-.57-.43a.49.49 0 0 0-.76 0c-.41.39-.83.77-1.23 1.17-.88.89-.68.76-.07 1.55.31.45.55.46.94.09zM36.31 25.17c-.31-.29-.54-.25-.8.07-.13.15-.24.32-.37.46a.49.49 0 0 0 0 .78c.37.38.74.76 1.12 1.12 1 .91.79.77 1.83 0a.37.37 0 0 0 .15-.31.55.55 0 0 0-.18-.38c-.56-.59-1.15-1.18-1.75-1.74zM52.08 12.57c.72.71.81.71 1.42-.09.11-.16.27-.29.29-.49a1 1 0 0 0-.29-.48c-.37-.37-.74-.75-1.13-1.11-.93-.88-.79-.64-1.57-.08-.46.32-.46.55 0 .95z"/><path class="f" d="M40.64 7.72c.31.12.57.36 1 .35a1.2 1.2 0 0 0 .24 0c.69-.34 1.3-.81 2-1.2.21-.13.1-.3-.09-.4-.84-.4-1.67-.69-2.49.05-.19.17-.42.28-.62.43s-.57.26-.54.52.29.17.5.25zM31.42 18.33c.15.34.32.35.53 0l1-1.52a1.1 1.1 0 0 0 .17-.52.79.79 0 0 0-.12-.45c-.12-.26-.25-.52-.36-.79s-.22-.39-.45-.08c-.35.47-.69 1-1 1.46a.86.86 0 0 0-.17.74c.12.42.25.83.4 1.16zM45.07 6.94l1.48.93a1.16 1.16 0 0 0 .61.19.8.8 0 0 0 .44-.06l.83-.36c.1 0 .24 0 .26-.15s-.1-.21-.2-.28c-.5-.34-1-.68-1.52-1a1 1 0 0 0-.95-.1c-.3.13-.62.22-.93.34-.11 0-.26.09-.26.25s.17.17.24.24zM48.54 30.5a5.21 5.21 0 0 1-.94-.4.89.89 0 0 0-.88 0c-.59.35-1.16.72-1.74 1.1-.18.11-.22.28 0 .4a4.74 4.74 0 0 0 1.34.46h.16a6 6 0 0 0 2.18-1.32c.15-.12.01-.21-.12-.24zM31.88 19.61c-.11-.17-.28-.18-.38 0A5.12 5.12 0 0 0 31 21a.57.57 0 0 0 0 .14 7.11 7.11 0 0 0 1.35 2.07c.14.16.21 0 .27-.12.13-.32.27-.63.42-.94a.79.79 0 0 0 0-.76c-.36-.6-.76-1.19-1.16-1.78zM57.29 19.71c-.15-.31-.31-.31-.51 0-.34.5-.67 1-1 1.52a.92.92 0 0 0-.05 1 4.77 4.77 0 0 1 .37.83c.09.24.21.27.36.08a10.78 10.78 0 0 0 1.18-1.73 1.21 1.21 0 0 0 .09-.35 4.23 4.23 0 0 0-.44-1.35zM43.68 31.13l-1.51-.94a1 1 0 0 0-1.08-.06 5.05 5.05 0 0 1-.8.34c-.33.1-.32.23-.08.41a15.61 15.61 0 0 0 1.59 1.05 1.13 1.13 0 0 0 .64.13 4.82 4.82 0 0 0 1.2-.4c.11-.05.24-.09.25-.23s-.1-.23-.21-.3zM56.83 18.42c.11.18.29.23.4 0a3.92 3.92 0 0 0 .49-1.42.69.69 0 0 0 0-.22 7.12 7.12 0 0 0-1.3-2c-.13-.15-.22 0-.28.11-.13.31-.27.63-.42.94a.79.79 0 0 0 0 .79c.34.67.72 1.24 1.11 1.8z"/><path class="g" d="M2.27 16.41v2.24a19.38 19.38 0 0 0 .49 2.87 12.35 12.35 0 0 0 .41 1.3l.12.29a10.55 10.55 0 0 0 2.12 3.42l.84.87a15.56 15.56 0 0 0 2.43 1.82l1.12.58.29.13a10.65 10.65 0 0 0 1.22.48c.2.06.17.06.31.11l2.07.52a16.87 16.87 0 0 0 2.23.3 28.49 28.49 0 0 0 5 0c.46-.06 1 0 1.46-.12.1 0 .23-.08.33-.09l.65-.12c.85-.21 2-.29 2.28-1.32a10.35 10.35 0 0 0 .29-1.29l.23-1.37a17.15 17.15 0 0 0 .25-2.17l-.41-.38c-.46 0-.46.79-.56 1.09l-.07.17a5.21 5.21 0 0 1-.88 1.58 3.23 3.23 0 0 0-.25.29 4 4 0 0 1-1.23.95 5.2 5.2 0 0 1-1.66.58c-.21 0-.28.08-.43.1a28.41 28.41 0 0 1-3.08.17c-.36-.05-.59-.07-1-.1l-1.81-.44-.39-.13-.22-.09-.2-.08-.17-.07a13.23 13.23 0 0 1-1.9-1.1l-1.2-1c-.31-.31-.62-.59-.9-.92a10.68 10.68 0 0 1-1.29-1.84l-.7-1.48c0-.11 0-.12-.07-.22l-.44-1.44a17.51 17.51 0 0 1-.39-4.69 17.16 17.16 0 0 1 .49-3.11c.15-.46.28-.92.46-1.36l.09-.21A9.09 9.09 0 0 1 9.83 8.7l.17-.15v-.06a6.74 6.74 0 0 1 1.08-.92l.73-.46a6.5 6.5 0 0 1 .84-.39l.43-.17.23-.06a7.45 7.45 0 0 1 1.24-.29c.17 0 .33-.08.49-.1l1.79-.1a16.46 16.46 0 0 1 3.32.39 7.34 7.34 0 0 1 1.24.35l.17.06.67.28a5.27 5.27 0 0 1 1 .54l.1.08.23.19a4.76 4.76 0 0 1 1.4 2.31l.5 1.86c.58 0 .53-.9.54-1.3a26.76 26.76 0 0 1 .07-3.35v-.84a9.55 9.55 0 0 0 .12-1.06c0-.47-1.55-.51-2.05-.6-.7-.14-1.51-.34-2.25-.41a9.53 9.53 0 0 1-.95-.1l-2-.18a30.33 30.33 0 0 0-3.93.07c-.33.06-.71 0-1.06.12s-.49.06-.73.1a1.18 1.18 0 0 0-.34.07l-.63.14c-.67.17-1.26.34-1.9.57a16.83 16.83 0 0 0-1.62.74A12.8 12.8 0 0 0 6.94 7.4c-.18.14-.27.24-.45.38a5.94 5.94 0 0 0-1 1L5.32 9A11 11 0 0 0 4 10.86l-.15.27a12.21 12.21 0 0 0-.65 1.37 14.71 14.71 0 0 0-.49 1.5zM61.11 8.59c0 .67 1 .28 1.61.45l.49.16a1.56 1.56 0 0 1 .57.37 3.38 3.38 0 0 1 .33 1.32v15c0 1.07.12 3.64-.86 4a5.39 5.39 0 0 1-1.5.15c-.06.11-.17.23-.17.36l.29.29h2.6c.27 0 1.48-.13 1.76-.12s.28 0 .53.06l4.6.06.3-.12v-.47c-.3-.08 0-.13-.71-.12a13 13 0 0 1-1.54-.17 1 1 0 0 1-.56-.32 3.91 3.91 0 0 1-.44-2.1 6.44 6.44 0 0 0-.06-.83v-6.77l.29-.06 11.49.06a13.13 13.13 0 0 1 0 3.07c-.1.91 0 2.83 0 3.94a12.87 12.87 0 0 1-.29 2.2c-.25 1.05-.75.87-2.17 1-.07.11-.18.23-.18.36l.41.29h2.66c.27 0 1.48-.13 1.76-.12s.28 0 .53.06c1.36.07 3.13.06 4.48.06l.36-.35c-.33-.49-.37-.2-1.58-.37a5.24 5.24 0 0 1-.82-.12c-1.22-.38-.88-2.43-1-3.93 0-.57-.06-.46-.06-1.24V13.48c0-.63.06-3.08.16-3.49a1.1 1.1 0 0 1 .29-.59 2.2 2.2 0 0 1 1.5-.4c.39 0 .39-.06.64-.29 0-.33-.1-.38-.59-.41s-1.79 0-2.59 0h-3.85c-.42 0-.66 0-1-.06L77 8.65c0 .61 1.29.07 2.39.67a1.14 1.14 0 0 1 .51.61 1.45 1.45 0 0 1 .07.34c.16 1 .09 4.81.09 6.16a6.77 6.77 0 0 1 0 1.47H68.47l-.17-.18c0-.85-.09-7 .16-7.79a1.06 1.06 0 0 1 .74-.79c1.31-.34 1.39.1 1.75-.55-.27-.4-.9-.32-1.54-.3l-1.76.06h-3.89c-.41 0-.61 0-.94-.06s-1.71-.11-1.71.3zM157 30.4l.35.23a29.61 29.61 0 0 0 3.07-.05 18.45 18.45 0 0 1 2.47.05h2.47l.3-.12v-.41c-.29-.08 0-.11-.47-.12a4.43 4.43 0 0 1-1.77-.3.59.59 0 0 1-.17-.12 2.09 2.09 0 0 1-.48-1 29.13 29.13 0 0 1-.29-4.72c-.07-.82-.13-3.71-.12-4.59 0-.47-.06-.7-.06-1.12v-1.18c0-.39-.06-.67-.06-1.12V14.6a3.4 3.4 0 0 1 .52.49l.77.82c.65.74 1.37 1.42 2 2.13l2.47 2.45.07.05 1.45 1.46c.72.66 1.35 1.45 2.12 2.05a5.53 5.53 0 0 1 .55.53l.26.26.13.11 2.92 2.8 1.06 1h.06l.1.08.8.79c.2.21.35.29.56.5l1.34.79c1 .27.54-3.32.68-4.27.07-.47 0-1.13.08-1.58.09-.84 0-2.27 0-3.17 0-1.07.06-2.06.05-3.19l.06-1.53v-1.59c0-.33.06-.38.07-.7a35.67 35.67 0 0 1 0-4c.1-.67.07-1.33.66-1.7a9 9 0 0 1 1.98-.53c0-.62-1.84-.3-2.36-.3h-3.3c-.41 0-.61 0-.94-.06l-1.77.3c0 .83 1.94 0 2.68 1 .5.7.44 2.39.44 3.21 0 2.79.19 5.59.18 8.37 0 .46.06.7.06 1.18l.05 2.42c-.3 0-.94-.79-1.18-1.06l-.75-.78-8.17-8.15-.06-.06-1.24-1.24-.12-.12-4.62-4.67c-.33-.33-1.19-1.38-1.62-.65a4.13 4.13 0 0 0-.16 1.73c0 .32-.06.49-.06.88 0 2.47-.12 5-.12 7.49V21c0 .34-.06.48-.06.88l-.06 5.65c-.09.75 0 1.74-.63 2.2a3.89 3.89 0 0 1-1.61.28c-.41 0-.51.08-.59.42zM122.16 19.9a12.36 12.36 0 0 1-2-.14l-.16-.06-.19-.05-.31-.57v-8.66l.18-.42a8.47 8.47 0 0 1 2.51 0 4.35 4.35 0 0 1 1 .22.83.83 0 0 1 .22.08l.24.11a3.87 3.87 0 0 1 1.5 1.21 6.43 6.43 0 0 1 .49 6.16 4.67 4.67 0 0 1-.91 1.27 3.52 3.52 0 0 1-.63.49h-.07l-.07.05a3.5 3.5 0 0 1-1.71.29zm-9.72-11.31c0 .72 1.24.12 2.39.73.77.42.66 1.67.67 2.45v14.5c0 .61.13 2.83-.6 3.42-.41.33-1.24.26-1.76.29-.25.37-.17.34.12.65.86 0 2.81 0 3.63-.07.6-.08 2.08.06 2.73.07h2.77l.3-.12v-.41c-.29-.08-.08-.12-.53-.12-.63 0-1.8-.07-2.17-.54a2.46 2.46 0 0 1-.32-1.1 31.43 31.43 0 0 1-.11-3.36c-.06-1.1-.06-2.21-.06-3.31 0-.37.69-.17 1.06-.17 2.37 0 2-.29 3 1.08.58.8 1.09 1.65 1.7 2.43l1.12 1.47.07.11a15.16 15.16 0 0 0 2.61 2.87 5.75 5.75 0 0 0 1 .67l.37.16a5.94 5.94 0 0 0 1.6.34h4.48a.31.31 0 0 0 .28-.34c0-.6-1.12 0-2.93-1.13a7.61 7.61 0 0 1-1.39-1.16l-.05-.06a12.46 12.46 0 0 1-1-1.05l-1-1.19c-.89-1.06-1.84-2.11-2.69-3.21l-.13-.17a19.93 19.93 0 0 1-1.66-2.1c0-.17.15-.23.27-.32l1.66-1.52 1.13-1.4c.17-.3.31-.51.47-.83a5.84 5.84 0 0 0 .59-1.94 3.87 3.87 0 0 0-.08-1.4c0-.15-.06-.29-.09-.43a5.11 5.11 0 0 0-1.55-2.46c-.12-.1-.15-.1-.27-.21a4 4 0 0 0-1.23-.71l-.93-.31-.33-.08c-.09 0-.26 0-.4-.07a30.05 30.05 0 0 0-6.22-.21h-3.71c-.53 0-2.77-.31-2.77.24zM150.69 8.35H139.9c-.36 0-1.65-.12-1.94-.06l-.71.3c0 .7.81.17 2.06.59a1.36 1.36 0 0 1 .72.52l.23 1.07v15.56a9.85 9.85 0 0 1-.29 2.84c-.11.3-.06.27-.28.48-.44.42-1.29.2-2 .45v.41a3.68 3.68 0 0 0 1.54.12c.5 0 2 0 2.45-.07a19.62 19.62 0 0 1 2.43 0l7.9.11c.81 0 1-.55 1.08-1.46 0-.33.15-.81.16-1.13s.16-1.51.12-1.65l-.29-.47c-.6 0-.26.62-.85 1.8-.43.87-1.27.92-1.95 1.06a1.8 1.8 0 0 1-.39.08 26.72 26.72 0 0 1-3.24-.06 5 5 0 0 1-.74-.14 1.76 1.76 0 0 1-1.36-1.24l-.14-.74v-7c0-.36.56-.18.88-.18a8.25 8.25 0 0 1 1.22 0c.77.11 1.63 0 2.43 0 .6.06 1.46.15 1.81.66a10.6 10.6 0 0 1 .62 1.86c.64-.15.32-1 .43-1.74s.11-1.21.24-2a7.06 7.06 0 0 0 0-1.38.59.59 0 0 0-.6.22c-.73.71-1 .43-2 .56-.52.07-4.09.1-4.85.1l-.24-.24V10.3l.24-.24c.66 0 2.23 0 2.81.08.94.12 3.1-.18 3.74.85a8.91 8.91 0 0 1 .58 1.72c.5 0 .42-.51.49-1 .1-.84.1-1.61.23-2.6.09-.73.27-.28-.07-1a6.21 6.21 0 0 1-1.77.29zM105.6 8.35H94.94c-.39 0-1.71-.12-2-.06l-.76.3c0 .69.78.18 2 .58a1.33 1.33 0 0 1 .74.49l.25 1c0 .41 0 15.37-.06 17.33a4.54 4.54 0 0 1-.26 1.27c-.2.48-.34.54-.89.64a2.93 2.93 0 0 1-.67.09 1.06 1.06 0 0 0-.65.12v.41a3.07 3.07 0 0 0 1.41.12h1.28a27 27 0 0 1 3.72 0l7.91.11c.68 0 .84-.34 1-.92 0-.2.07-.26.11-.54l.17-1.13c0-.37.16-1.51.11-1.65L108 26c-.69 0-.26 1.14-1 2.06l-.14.15a2.88 2.88 0 0 1-1.62.62c-.75.19-.64 0-1.27.09-1 .11-3.48.08-4.17-.86a3 3 0 0 1-.43-1.33v-7c0-.36.55-.18.88-.18a8.08 8.08 0 0 1 1.21 0 29.65 29.65 0 0 1 3.4.19c1.4.34 1.12 1.76 1.16 1.9s.21.46.36.45 0 0 .12 0 .11-.1.16-.2a1.67 1.67 0 0 0 .07-.69c0-.94.18-1.87.27-2.8V17c-.44 0-.38 0-.61.22-.62.66-1 .45-1.92.55-.74.08-4 .11-4.9.11l-.23-.24V10.3l.23-.24c.67 0 2.23 0 2.81.08 1.2.16 3.42-.27 3.93 1.2l.39 1.37c.47 0 .42-.38.48-1.05 0-.48.11-1.55.18-1.94s0-.56.12-1 .16-.1-.13-.71c-.19 0-.22.06-.37.1a4.24 4.24 0 0 1-1.4.19zM186.17 12.12c0 .39.44.86.75-.07a1.72 1.72 0 0 1 .1-.26 5.05 5.05 0 0 1 .25-.45c.6-1.05 2.13-1 3.26-1H192c.31 0 .34-.05.64-.06h.71c.5 0 .63-.06 1.41-.06v15.4a18.07 18.07 0 0 1-.2 3.28 1.06 1.06 0 0 1-.8 1 10.52 10.52 0 0 0-1.53.24v.41l.29.12h2.66c.27 0 1.48-.13 1.76-.12s.28 0 .53.06l4.54.06.3-.12v-.45c-.27-.07 0-.08-.36-.12h-.53c-.31 0-.6-.09-.89-.11-1.27-.1-1.25-.64-1.42-1.64-.07-.37 0-.88-.09-1.45l-.02-1.51V10.18c.9 0 1.62.06 2.47.06l2.44.1a4 4 0 0 1 2 .69 1.17 1.17 0 0 1 .46.72c.14.56 0 .51.21 1.08h.41c.08-.28.11-.05.13-.47v-.65c0-.44.06-.47.06-1.24a6.77 6.77 0 0 0-.18-2.35 3.83 3.83 0 0 0-.53.05 4.12 4.12 0 0 0-.54.11l-1.17.07h-15.3a5.71 5.71 0 0 1-1.54-.23c-1.06-.37-.88-.43-1.35 1.74-.08.33-.37 2.07-.37 2.28zm0 0"/></svg>